<svg xmlns="http://www.w3.org/2000/svg" width="256" height="256" viewBox="0 0 256 256">
<!-- SVG created with Arrow, by QuiverAI (https://quiver.ai) -->
  <path d="m214.2 16.89c-10.27-9.78-21.3-12.48-30.36-12.48-11.76 0-22.93 3.76-30.09 11.38l-24.7 24.4-23.31-23.77c-9.49-9.43-20.16-11.51-31.59-11.91-10.28-0.36-20.9 1.41-31.26 10.47-11.59 10.32-21.03 24.88-21.03 43.96 0 17.72 6.38 28.54 17.25 38.51l55.03 53.4c0.44 0.44 1.79 0.58 2.51-0.43 0.58-0.78 0.19-1.94-0.3-2.41l-54.97-55.18c-9.25-9.02-15.24-17.19-15.24-33.89 0-18.68 11.29-35.66 21.61-43.03 7.84-5.7 15.2-7.55 24.99-7.55 12.94 0 24.44 4.02 31.41 11.86l24.36 26.41c1.01 1.13 2.22 0.98 3.18-0.12l24.5-25.78c8.61-9.09 19.49-11.64 28.97-11.64 9.22 0 19.06 3.62 26.96 11.13 10.33 9.85 16.03 22.7 16.03 38.99 0 15.9-8.13 28.77-19.37 40.79l-20.03 0.04-11.5-22.96c-1.21-2.16-4.61-1.97-5.19 0.33l-17 41.73-10.37-15.98c-1.21-1.75-3.21-1.53-4.23 0.26l-9.3 15.5-20.91-40.96c-1.39-2.8-4.21-2.25-4.63-0.11l-9.07 25.31-25.8 0.05c-2.72 0-2.72 4 0 4l27.24-0.07c1.16 0 1.87-0.93 2.29-2.06l8-17.47 20.41 37.51c1.21 2.41 3.49 1.97 4.55-0.17l9.64-16.42 10.08 16.56c1.68 2.8 4.55 1.88 5.37-0.42l16.2-39.06 10.07 20.19c0.49 0.92 0.98 1.31 2.19 1.31l21.59-0.05c1.53 0 1.68-0.78 2.3-1.66 11.72-14.67 23.2-23.63 23.2-44.64 0-16.75-8.22-33.04-19.68-43.87z" fill="#B11E31"/>
  <path d="m71.67 21.01c-19.35 0-36.25 16.28-36.25 38.98v1.82c0 1.36 2.81 1.55 2.81-0.16v-1.66c0-17.62 13.75-33.02 33.34-33.02h0.54c4.28 0 4.04-5.96-0.44-5.96z" fill="#B11E31"/>
  <path d="m184.8 21.31c-3.01-0.29-3.53 5.45 0.74 5.88 18.93 0 28.95 16.19 28.95 29.87l-0.04 3.85c0 3.9 5.55 3.3 5.55-0.2 0-20.1-13.44-39.18-35.2-39.4z" fill="#B11E31"/>
  <path d="m143.2 196-25.29-25.89c-3.69-3.8-4.32-6.14-4.61-10.77-0.46-7.03-5.01-14.38-7.93-17.74-2.77-2.94-5.97 2.04-4.44 4.8 3.4 5.13 5.47 9.78 3.93 14.56-1.97 6.43-10.09 6.77-15.16 5.35-2.81-0.81-4.88-1.78-8.71-4.87l-32.2-24.3c-5.17-4.05-5.75-8.15-3.93-12.4 3.98 2.76 5.18-3.46 2.71-5.8-2.87-2.34-5.48-0.64-7.3 3.49-3.4 8.12-2.54 14.23 5.63 20.67l33.62 25.45c4.97 3.65 9.47 4.19 13.74 3.32 4.55-0.97 5.03-2.74 9.53-2.16 4.27 0.6 7.29 3.19 9.06 5.27l26.88 26.46c4.91 4.98 6.93 9.53 6.35 19.07-1.2 13.34-12.22 24.94-26.36 24.94-12.53 0-18.17-2.34-24.43-8.61l-31.29-29.41c5.9-5.8 7.81-10.78 7.23-17.81-1.39-11.2-10.83-20.29-24.21-20.29-13.09 0-23.42 12.95-23.71 24.6-0.72 11.6 8.96 21.4 20.83 21.4h3.55c6 0 9.5-1.7 12.71-4.05l32.4 30.18c6.93 7.21 14.83 9.3 25.6 9.3 17.42 0 32.9-14.83 33.43-32.6 0.19-9.58-3.69-17.76-7.63-22.16zm-97.04 15.03c-10.57 0-19.44-8.07-19.44-16.7 0-10.6 9.16-20.65 19.97-20.65h1.78c10.42 0 17.73 8.07 17.73 17.33 0 10.28-9.44 20.02-20.04 20.02z" fill="#B11E31"/>
  <path d="m46.33 179.3c-8.38 0-13.55 6.39-13.55 12.78 0 8.07 6.08 12.62 13.21 12.62 8.38 0 13.3-6.23 13.3-12.62 0-8.07-5.68-12.78-12.96-12.78z" fill="#B11E31"/>
</svg>